<svg xmlns:dc="http://purl.org/dc/elements/1.1/" xmlns:cc="http://creativecommons.org/ns#" xmlns:rdf="http://www.w3.org/1999/02/22-rdf-syntax-ns#" xmlns:svg="http://www.w3.org/2000/svg" xmlns="http://www.w3.org/2000/svg" xmlns:xlink="http://www.w3.org/1999/xlink" id="svg290712" viewBox="0 0 1024 768" height="768px" width="1024px" version="1.1">
  <metadata id="metadata290718">
    <rdf:rdf>
      <cc:work rdf:about="">
        <dc:format>image/svg+xml</dc:format>
        <dc:type rdf:resource="http://purl.org/dc/dcmitype/StillImage"></dc:type>
      </cc:work>
    </rdf:rdf>
  </metadata>
  <defs id="defs290716"></defs>
  <linearGradient spreadMethod="pad" y2="30%" x2="-10%" y1="120%" x1="30%" id="3d_gradient2-logo-e3473825-4bdd-4e99-a120-7abc7741661e">
    <stop id="stop290693" stop-opacity="1" stop-color="#ffffff" offset="0%"></stop>
    <stop id="stop290695" stop-opacity="1" stop-color="#000000" offset="100%"></stop>
  </linearGradient>
  <linearGradient gradientTransform="rotate(-30)" spreadMethod="pad" y2="30%" x2="-10%" y1="120%" x1="30%" id="3d_gradient3-logo-e3473825-4bdd-4e99-a120-7abc7741661e">
    <stop id="stop290698" stop-opacity="1" stop-color="#ffffff" offset="0%"></stop>
    <stop id="stop290700" stop-opacity="1" stop-color="#cccccc" offset="50%"></stop>
    <stop id="stop290702" stop-opacity="1" stop-color="#000000" offset="100%"></stop>
  </linearGradient>
  <g id="logo-group">
    <image xlink:href="" id="container" x="272" y="144" width="480" height="480" style="display: none;" transform="translate(0 0)"></image>
    <g id="logo-center" transform="translate(169.45994333333329 0)">
      <image xlink:href="" id="icon_container" style="display: none;" x="0" y="0"></image>
      <g id="slogan" style="font-style:normal;font-weight:700;font-size:32px;line-height:1;font-family:'Brandmark1 Bold';font-variant-ligatures:none;text-align:center;text-anchor:middle" transform="translate(0 0)"></g>
      <g id="title" style="font-style:normal;font-weight:700;font-size:72px;line-height:1;font-family:'Brandmark1 Bold';font-variant-ligatures:normal;text-align:center;text-anchor:middle" transform="translate(0 0)">
        <path id="path290721" style="font-style:normal;font-weight:700;font-size:72px;line-height:1;font-family:'Brandmark1 Bold';font-variant-ligatures:normal;text-align:center;text-anchor:middle" d="m 430.29069,2.808 c 3.816,0 7.488,-0.72 11.016,-2.232 3.384,-1.44 6.408,-3.456 9.072,-6.12 2.592,-2.592 4.608,-5.616 6.048,-9 1.512,-3.528 2.232,-7.2 2.232,-11.088 0,-3.816 -0.72,-7.488 -2.232,-11.016 -1.44,-3.384 -3.456,-6.408 -6.048,-9.072 -2.664,-2.592 -5.688,-4.608 -9.072,-6.048 -3.528,-1.512 -7.2,-2.232 -11.016,-2.232 -3.888,0 -7.56,0.72 -11.088,2.232 -3.384,1.44 -6.408,3.456 -9,6.048 -2.664,2.664 -4.68,5.688 -6.12,9.072 -1.512,3.528 -2.232,7.2 -2.232,11.016 0,3.888 0.72,7.56 2.232,11.088 1.44,3.384 3.456,6.408 6.12,9 2.592,2.664 5.616,4.68 9,6.12 3.528,1.512 7.2,2.232 11.088,2.232 z m 0,-45.504 c 4.536,0 8.856,1.8 12.096,5.04 3.168,3.168 4.968,7.488 4.968,12.096 0,4.536 -1.8,8.856 -4.968,12.096 -3.24,3.168 -7.56,4.968 -12.096,4.968 -4.608,0 -8.928,-1.8 -12.096,-4.968 -3.24,-3.24 -5.04,-7.56 -5.04,-12.096 0,-4.608 1.8,-8.928 5.04,-12.096 3.168,-3.24 7.488,-5.04 12.096,-5.04 z" stroke-width="0" stroke-linejoin="miter" stroke-miterlimit="2" fill="#2a3441" stroke="#2a3441" transform="translate(0 323.428) translate(50 -22.000000000000014) scale(2.3333333333333335) translate(-401.85069 54)"></path>
        <path id="path290723" style="font-style:normal;font-weight:700;font-size:72px;line-height:1;font-family:'Brandmark1 Bold';font-variant-ligatures:normal;text-align:center;text-anchor:middle" d="m 502.01844,-25.488 c -1.008,-2.376 -2.52,-4.608 -4.392,-6.48 -1.872,-1.872 -4.032,-3.384 -6.48,-4.392 -2.592,-1.08 -5.256,-1.656 -7.992,-1.656 -2.808,0 -5.472,0.576 -7.992,1.656 -2.448,1.008 -4.68,2.52 -6.552,4.392 -1.872,1.872 -3.384,4.032 -4.392,6.48 -1.08,2.592 -1.584,5.256 -1.584,7.992 v 30.672 l 10.8,3.6 v -16.2 c 0.504,0.36 1.08,0.576 1.728,0.864 2.52,1.08 5.184,1.584 7.992,1.584 2.736,0 5.4,-0.504 7.992,-1.584 2.376,-1.008 4.608,-2.52 6.48,-4.392 1.872,-1.872 3.384,-4.104 4.392,-6.552 1.08,-2.52 1.656,-5.184 1.656,-7.992 0,-2.736 -0.576,-5.4 -1.656,-7.992 z m -18.864,17.712 c -5.4,0 -9.72,-4.32 -9.72,-9.72 0,-5.328 4.32,-9.72 9.72,-9.72 5.328,0 9.72,4.392 9.72,9.72 0,5.4 -4.392,9.72 -9.72,9.72 z" stroke-width="0" stroke-linejoin="miter" stroke-miterlimit="2" fill="#3b4450" stroke="#3b4450" transform="translate(0 323.428) translate(205.82875000000004 15.295999999999992) scale(2.3333333333333335) translate(-462.63444 38.016)"></path>
        <path id="path290725" style="font-style:normal;font-weight:700;font-size:72px;line-height:1;font-family:'Brandmark1 Bold';font-variant-ligatures:normal;text-align:center;text-anchor:middle" d="M 507.43869,-35.424 V 2.52 h 10.872 v -41.544 z" stroke-width="0" stroke-linejoin="miter" stroke-miterlimit="2" fill="#4c545f" stroke="#4c545f" transform="translate(0 323.428) translate(324.37200000000007 12.943999999999988) scale(2.3333333333333335) translate(-507.43869 39.024)"></path>
        <path id="path290727" style="font-style:normal;font-weight:700;font-size:72px;line-height:1;font-family:'Brandmark1 Bold';font-variant-ligatures:normal;text-align:center;text-anchor:middle" d="m 555.54481,-31.608 c -3.384,-3.456 -7.992,-5.328 -12.816,-5.328 -2.52,0 -5.04,0.504 -7.272,1.512 v -2.592 h -10.8 v 17.64 c -0.072,0.504 -0.072,1.08 -0.072,1.584 h 0.072 V 2.52 h 10.8 V -19.8 c 0.504,-3.6 3.6,-6.336 7.272,-6.336 4.032,0 7.344,3.312 7.344,7.344 V 2.52 h 10.8 v -21.312 c 0,-4.824 -1.872,-9.36 -5.328,-12.816 z" stroke-width="0" stroke-linejoin="miter" stroke-miterlimit="2" fill="#5e636d" stroke="#5e636d" transform="translate(0 323.428) translate(378.3796133333332 15.295999999999992) scale(2.3333333333333335) translate(-524.58481 38.016)"></path>
        <path id="path290729" style="font-style:normal;font-weight:700;font-size:72px;line-height:1;font-family:'Brandmark1 Bold';font-variant-ligatures:normal;text-align:center;text-anchor:middle" d="M 566.50119,-35.424 V 2.52 h 10.872 v -41.544 z" stroke-width="0" stroke-linejoin="miter" stroke-miterlimit="2" fill="#6f737c" stroke="#6f737c" transform="translate(0 323.428) translate(490.18449999999984 12.943999999999988) scale(2.3333333333333335) translate(-566.50119 39.024)"></path>
        <path id="path290731" style="font-style:normal;font-weight:700;font-size:72px;line-height:1;font-family:'Brandmark1 Bold';font-variant-ligatures:normal;text-align:center;text-anchor:middle" d="m 602.07931,2.952 c 2.736,0 5.4,-0.504 7.992,-1.584 2.448,-1.008 4.608,-2.52 6.48,-4.392 1.872,-1.872 3.384,-4.104 4.392,-6.552 1.08,-2.52 1.656,-5.184 1.656,-7.992 0,-2.736 -0.576,-5.4 -1.656,-7.992 -1.008,-2.448 -2.52,-4.608 -4.392,-6.48 -1.872,-1.872 -4.104,-3.384 -6.48,-4.392 -2.592,-1.08 -5.256,-1.656 -7.992,-1.656 -2.808,0 -5.472,0.576 -7.992,1.656 -2.448,1.008 -4.68,2.52 -6.552,4.392 -1.872,1.872 -3.384,4.104 -4.392,6.48 -1.08,2.592 -1.584,5.256 -1.584,7.992 0,2.808 0.504,5.472 1.584,7.992 1.008,2.448 2.52,4.68 4.392,6.552 1.872,1.872 4.104,3.384 6.552,4.392 2.52,1.08 5.184,1.584 7.992,1.584 z m 0,-30.24 c 5.328,0 9.72,4.392 9.72,9.72 0,5.4 -4.392,9.72 -9.72,9.72 -5.4,0 -9.72,-4.32 -9.72,-9.72 0,-5.328 4.32,-9.72 9.72,-9.72 z" stroke-width="0" stroke-linejoin="miter" stroke-miterlimit="2" fill="#80838b" stroke="#80838b" transform="translate(0 323.428) translate(539.3201133333334 15.127999999999986) scale(2.3333333333333335) translate(-581.55931 38.088)"></path>
      </g>
      <image xlink:href="" id="icon" style="display: none;" x="0" y="0"></image>
    </g>
  </g>
</svg>
